<?xml version="1.0" encoding="UTF-8"?><svg id="Layer_2" xmlns="http://www.w3.org/2000/svg" viewBox="0 0 1200 1200"><defs><style>.cls-1{fill:#2b555b;}.cls-2{fill:#cd0015;}.cls-3{fill:#f5f0e5;}</style></defs><g id="Layer_1-2"><rect class="cls-3" width="1200" height="1200"/><path class="cls-1" d="M589.8085,409.0623c149.0597,84.1302,204.7907-140.8658-4.7427-118.9987-186.0287,19.4141-307.3918,194.1403-273.7398,364.7654,45.4378,230.3825,307.9962,253.9828,384.6886,255.131,78.9785,1.1824,148.8822,1.4631,180.2571,1.5289,9.7447.0204,17.5611-7.8527,17.5981-17.5974l.3604-94.9599c.0376-9.9179-8.0602-17.9011-17.9766-17.7269-58.3904,1.0257-243.5385-.5331-332.4265-57.5912-83.4274-53.5528-120.8979-125.9704-116.9373-214.422,4.0699-90.894,68.1524-153.6159,162.9188-100.1292Z"/><path class="cls-2" d="M876.3087,917.2594h-.0496c-33.888-.0699-102.3795-.3629-180.3308-1.5282-33.8181-.5071-121.614-5.6213-206.2607-42.0743-102.2916-44.051-164.1988-117.2994-184.003-217.7124-16.6634-84.4911,3.8351-173.6524,56.2403-244.6244,53.5372-72.5024,132.5778-117.6037,222.5623-126.9959,98.9349-10.3456,129.3958,32.6663,137.9021,51.631,12.0867,26.9458,5.4647,58.4919-16.4774,78.4979-28.3128,25.8166-72.7706,25.6814-118.9195-.3674-38.3558-21.6468-73.4823-24.8587-101.5822-9.284-30.853,17.1006-50.5677,56.2222-52.7359,104.6481-3.9264,87.6849,34.5264,158.107,114.2899,209.3097,87.8827,56.4093,274.1961,57.6377,329.2079,56.6753,6.3899-.1127,12.3561,2.2855,16.8775,6.7438,4.5191,4.4583,6.9951,10.4154,6.9703,16.7761l-.3595,94.9584c-.0496,12.8835-10.5112,23.3463-23.3316,23.3463ZM611.9894,294.3814c-8.41,0-17.1953.4666-26.3243,1.42-86.7203,9.0518-162.8893,52.5122-214.4768,122.3753-50.4837,68.3687-70.2395,154.2167-54.2016,235.5365,19.0238,96.455,78.6579,166.8883,177.2452,209.3435,82.7494,35.637,168.7399,40.6385,201.87,41.1344,77.886,1.1653,146.3211,1.4583,180.182,1.5282h.0248c6.4789,0,11.7667-5.3103,11.7915-11.8512l.3595-94.9584c.0124-3.2299-1.243-6.2547-3.5342-8.5154-2.2934-2.2607-5.3283-3.4711-8.5706-3.4192-30.3786.5229-90.9757.3268-155.533-7.0526-80.6904-9.2209-141.2887-26.5311-180.1116-51.4529-83.4746-53.5829-123.7085-127.4467-119.5849-219.5381,2.3492-52.4627,24.2822-95.1613,58.6706-114.2228,22.1697-12.2862,59.7429-20.6438,112.8485,9.329h0c41.5959,23.477,81.0251,24.1825,105.4725,1.8888,18.249-16.6408,23.7644-42.8609,13.7231-65.247-13.332-29.7249-49.8261-46.2981-99.8506-46.2981Z"/><rect class="cls-2" x="756.3743" y="775.3318" width="35.7548" height="138.7394"/></g></svg>
