<?xml version="1.0" encoding="UTF-8"?><svg id="Layer_1" xmlns="http://www.w3.org/2000/svg" viewBox="0 0 1200 1200"><defs><style>.cls-1{fill:#faf8f4;}.cls-2{fill:#a32642;}</style></defs><rect class="cls-1" width="1200" height="1200"/><path class="cls-2" d="M589.6319,405.3086c151.9713,85.7735,208.7908-143.6173-4.8353-121.3231-189.6623,19.7934-313.396,197.9324-279.0867,371.8903,46.3253,234.8825,314.0122,258.9438,392.2027,260.1144,80.5211,1.2055,151.7903,1.4916,183.778,1.5587,9.935.0208,17.9041-8.0061,17.9418-17.9411l.3675-96.8147c.0384-10.1116-8.2176-18.2507-18.3277-18.0731-59.5309,1.0458-248.2955-.5436-338.9197-58.7161-85.0569-54.5989-123.2593-128.431-119.2215-218.6102,4.1494-92.6694,69.4836-156.6164,166.101-102.085Z"/></svg>
